Patient4_TMGait_0pt6_01_right_09_EMG.mot
version=1
nRows=37
nColumns=33
inDegrees=no
endheader
time	1LAddLong	2LGlutMax	3LGlutMed	4LIliopsoas	5LSemiMemb	6LBicFemLong	7LRecFem	8LVastMed	9LVastLat	10LGasMed	11LTibAnt	12lTibPost	13LPeroneusLong	14LSol	15LExtDigLong	16LFlexDigLong	17RAddLong	18RGlutMax	19RGlutMed	20RIliopsoas	21RSemiMemb	22RBicFemLong	23RRecFem	24RVastMed	25RVastLat	26RGasMed	27RTibAnt	28RTibPost	29RPeroneusLong	30RSol	31RExtDigLong	32RFlexDigLong
10.76	-0.017548	-0.2063	0.088806	-0.001068	0.001526	0.022888	-0.466	0.009308	0.12695	-0.03952	0.033722	-0.00351	-0.039825	-0.20569	0.42236	-0.011139	-0.037231	-0.48981	-0.40512	0.060883	0.032501	0.15823	-0.031586	-0.11566	0.15472	-0.001831	0.24811	-0.024261	-0.20981	0.25543	0.004883	-0.027161
10.761	-0.078278	-0.242	0.10651	0.009003	0.004883	0.023956	-0.3595	0.003052	0.15503	-0.046539	0.018768	0.007477	-0.040131	-0.13046	0.37949	-0.00351	-0.05188	-0.48141	-0.22675	0.052185	-0.070343	-0.12634	-0.15274	0.029449	0.090942	0.007629	0.15625	-0.033875	-0.17212	0.080719	0.003357	-0.034027
10.762	0.011749	-0.2092	0.10239	0.011597	0.009613	0.016937	-0.27786	-0.004578	0.15228	-0.0737	-0.24399	-0.007935	-0.062714	0.00061	0.080414	-0.008698	-0.022278	-0.38773	0.17838	-0.001526	-0.1001	-0.13641	-0.10315	0.049896	-0.009613	0.007935	0.022888	-0.039825	0.026855	0.066223	0.005646	-0.032806
10.763	0.025024	-0.20813	0.089417	-0.011292	0.003357	0.028229	-0.2298	-0.009308	0.12344	-0.057678	-0.2565	-0.001068	-0.10162	0.010986	0.12802	-0.010223	0.005646	-0.28336	0.52673	-0.098724	-0.20645	-0.022736	-0.037689	0.10147	-0.095673	-0.00061	0.01236	-0.037842	0.14404	0.06424	0.004425	-0.033264
10.764	-0.014954	-0.23468	0.10834	0.00412	0.009155	0.02655	-0.24094	-0.002136	0.13168	-0.036926	-0.11032	-0.002441	-0.093842	0	0.007477	-0.01236	0.001831	-0.33585	-0.24658	-0.090942	-0.18616	0.014496	-0.033875	0.21027	-0.095215	-0.012054	-0.15549	-0.041809	-0.052032	-0.039978	0.005035	-0.029602
10.765	-0.000916	-0.26642	0.12161	0.00885	0.012207	0.000305	-0.27634	0.005188	0.12192	-0.02121	0.052643	0.00351	-0.091248	0.042267	-0.15717	-0.02121	0.00473	-0.32135	-0.62897	-0.078125	0.005188	-0.11612	0.168	0.1181	-0.10117	-0.014343	-0.24338	-0.046539	-0.071869	-0.19073	0.000763	-0.025787
10.766	-0.001678	-0.29511	0.12878	0.025482	0.018158	-0.000305	-0.18692	-0.004425	0.12131	-0.014648	0.11704	0.006409	-0.11017	-0.026703	-0.1741	-0.013733	0.017242	-0.40222	-0.28519	-0.11108	0.037689	-0.21835	0.36346	0.018311	-0.063629	-0.018311	-0.13489	-0.053101	0.090637	-0.38406	0.00061	-0.032349
10.767	-0.00061	-0.31342	0.12695	0.025177	0.012817	0.001984	-0.11536	-0.014343	0.10254	-0.01709	0.24857	0.003967	-0.13031	-0.071716	0.089264	-0.019684	-0.003052	-0.52185	-0.45593	-0.044403	0.1828	-0.17761	0.31525	0.06424	0.018311	-0.027161	-0.15823	-0.047302	-0.059509	-0.69672	0.003815	-0.031586
10.768	-0.001526	-0.31281	0.1152	-0.007629	0.011139	-0.005341	-0.14267	-0.022278	0.11154	-0.039368	0.089417	0.003052	-0.09903	0.006409	0.056763	-0.00946	-0.01709	-0.56793	-0.73273	-0.059509	0.13306	0.011902	0.21591	0.07019	0.066376	-0.009308	-0.22873	-0.037994	-0.097656	-0.64194	0.001526	-0.034637
10.769	-0.006104	-0.37216	0.13443	0.016937	0.013733	-0.014343	-0.24384	-0.02182	0.1004	-0.059204	-0.075836	0.004578	-0.059204	0.033417	0.02121	-0.006104	0.031433	-0.58502	-0.5986	-0.056152	-0.14816	0.008087	0.10834	-0.089417	0.079498	0.031281	-0.24262	-0.058746	0.21469	-0.19226	0.003052	-0.021667
10.77	-0.001221	-0.43076	0.12909	0.016937	0.016174	-0.030212	-0.20355	-0.019073	0.075836	-0.020905	-0.16068	-0.001678	-0.1059	0.033417	0.023346	-0.009308	0.002594	-0.57312	-0.33249	-0.065002	-0.21347	-0.24262	0.14358	-0.076141	0.08255	0.048065	-0.18616	-0.05661	0.24597	0.040894	0.003204	-0.024567
10.771	-0.004578	-0.4834	0.13397	0.028839	0.014648	-0.028687	-0.11963	-0.017548	0.049896	-0.0177	-0.17914	0	-0.08606	0.046997	-0.05249	0.000305	-0.049286	-0.64331	-0.66986	-0.035706	-0.15564	-0.31281	0.021515	0.01709	0.103	-0.006104	0.33218	-0.052643	-0.15366	0.10269	-0.000305	-0.020447
10.772	-0.009308	-0.51407	0.12573	0.014343	0.016327	-0.013428	-0.051422	-0.005798	0.012207	-0.053864	0.004578	-0.005341	-0.009613	0.1355	1.1635	0.006409	-0.013123	-0.70313	-0.87006	0.027466	0.009003	-0.34637	0.065918	0.040131	0.067139	-0.10376	0.90942	-0.22675	-0.45853	0.27023	0.00351	-0.026398
10.773	-0.004425	-0.58701	0.1358	0.012817	0.011444	-0.023346	-0.037079	-0.009155	0.006561	-0.056458	0.12528	-0.009003	-0.019989	0.21454	0.52078	0.005341	-0.033722	-0.77103	-0.90073	0.059662	0.14343	-0.34653	0.12222	0.14572	-0.071869	-0.12482	0.63629	-0.13886	-0.50323	0.0177	-0.001221	-0.03418
10.774	-0.005798	-0.67474	0.12955	0.005188	0.019989	-0.012665	-0.033112	0.00351	0.018158	-0.018463	0.054626	-0.013428	-0.14282	0.2121	0.4686	-0.00351	-0.0177	-0.7634	-0.70175	0.04303	-0.12207	-0.23941	0.24979	0.13626	-0.17777	-0.046234	0.98709	0.1152	-0.48172	-0.439	0.00061	-0.041199
10.775	-0.002136	-0.69305	0.12985	0.007019	0.016479	-0.016632	0.029297	-0.00473	0.003052	-0.017395	0.10254	-0.008087	-0.19424	0.20905	-0.22522	-0.00885	-0.009155	-0.74524	0.33218	0.058746	-0.11475	-0.27679	0.22247	0.19501	-0.030212	0.006104	1.2706	0.17838	-0.40741	-0.97488	0.002899	-0.039673
10.776	0.000458	-0.65308	0.1326	-0.003357	0.016632	-0.006714	0.20187	-0.005493	0.01236	-0.017548	0.089722	-0.006256	-0.15091	0.15259	0.22339	-0.013733	-0.019379	-0.77301	0.79407	0.001526	-0.029297	-0.25955	0.18188	0.12161	0.068665	0.031891	0.60257	0.15808	-0.040283	-0.90347	-0.001068	-0.046844
10.777	-0.003815	-0.59006	0.17136	-0.002289	0.003052	-0.013428	0.31052	-0.00885	0.001526	-0.028076	0.074921	-0.014496	-0.033417	0.10254	-0.12619	-0.009918	-0.007629	-0.81375	0.15549	-0.027771	-0.011597	-0.16541	0.41977	0.044861	0.10086	0.023651	0.31464	0.067139	0.054932	0.19348	0.001831	-0.039368
10.778	-0.003052	-0.57785	0.19699	0.008698	0.020752	0.000153	0.37918	-0.000153	-0.013123	-0.036011	0.054016	-0.009766	0.049438	0.077515	-0.17029	-0.014648	0.015259	-0.86487	-0.10681	-0.083466	-0.053406	-0.13504	0.54993	0.002594	0.36758	0.031128	-0.6102	-0.020447	0.25024	0.63873	0.00412	-0.036621
10.779	-0.009155	-0.5545	0.17639	0.000458	0.011902	0.002289	0.34897	0.013733	-0.024414	-0.005341	0.012817	-0.012207	-0.004425	0.04303	-0.13473	-0.021667	0.015717	-0.89416	-0.11093	-0.001831	-0.14191	-0.10407	0.59998	-0.12756	0.5545	0.044098	-0.88287	0.002441	0.18906	0.46081	-0.004578	-0.035095
10.78	-0.007324	-0.52872	0.15595	0.004425	0.01358	0.009003	0.35019	0.014038	-0.016327	0.028381	-0.168	-0.007019	-0.016174	-0.009613	-0.31906	-0.023193	0.010529	-0.84701	0.35568	0.007172	-0.080719	-0.11765	0.51834	-0.18677	0.52887	0.001831	-0.63049	-0.032959	0.21469	0.6192	-0.004272	-0.040588
10.781	-0.003357	-0.46783	0.18784	0.006104	0.018616	0.031128	0.27908	0.018463	-0.002899	0.039825	-0.024414	-0.007782	-0.027924	-0.011597	0.49301	-0.022125	0.004425	-0.82657	-0.15243	-0.010223	-0.05188	-0.10895	0.13473	-0.33096	0.20645	-0.03067	-0.53802	-0.15701	0.059357	0.36499	-0.000916	-0.048218
10.782	-0.013123	-0.46524	0.19424	-0.000153	0.009766	0.01709	0.27679	0.018158	-0.007172	0.058289	0.079193	-0.005035	-0.08728	-0.052338	-0.58411	-0.017548	-0.020599	-0.81757	-0.50278	-0.010681	-0.083771	-0.046387	-0.3537	-0.44357	0.13596	-0.019531	0.38513	-0.1355	-0.1828	-0.13443	0.005188	-0.043945
10.783	-0.010223	-0.41138	0.19638	0.002899	0.008392	0.013275	0.22507	0.013123	0.003052	0.070648	0.11307	0.001068	-0.11948	-0.043945	-0.73944	-0.002899	-0.022888	-0.79834	-0.16434	-0.063171	-0.08667	-0.031128	-0.63644	-0.2742	-0.2124	-0.011292	1.237	0.094452	-0.20798	-0.53345	0.001831	-0.03952
10.784	-0.008698	-0.40695	0.20798	0.007935	0.008087	0.028076	0.07019	0.02121	0.013428	0.085449	0.20706	-0.00824	-0.093689	0.015259	-0.41351	0.004883	-0.025177	-0.7312	-0.1239	-0.018616	0.062866	-0.051117	-0.82336	0.10941	-0.50201	-0.001831	1.7741	0.098419	0.15091	-0.5928	-0.00824	-0.019073
10.785	-0.004578	-0.40375	0.19913	-0.006561	0.012207	0.020905	0.00061	0.009766	0.016327	0.079803	0.23773	-0.000916	-0.027924	-0.02243	-0.37277	0.001221	-0.049591	-0.76141	-0.43778	0.007935	0.042419	-0.06897	-0.55603	0.40726	-0.7814	0	1.328	0.040894	-0.039978	-0.58792	-0.003357	-0.026245
10.786	0.000458	-0.44769	0.20981	0.007629	0.009918	0.019379	0.071259	0.010529	0.037537	0.072632	-0.092926	-0.003815	0.059662	-0.025024	-0.10178	-0.00824	0.005951	-0.81131	-0.51224	0.05249	-0.036469	-0.17716	-0.11017	0.40543	-0.62683	-0.011597	-1.0095	0.028687	-0.22034	-0.52795	-0.001526	-0.039825
10.787	-0.002136	-0.37918	0.19409	0.014496	0.008698	0.006104	0.15976	0.005493	0.059052	0.070648	-0.20355	0	0.03891	-0.018768	-0.002747	-0.001984	-0.014343	-0.74707	-0.76767	0.05661	-0.039063	-0.177	0.042114	0.40329	-0.48935	-0.030365	-1.9267	0.008545	-0.44052	-0.5574	-0.000916	-0.033569
10.788	-0.003815	-0.41397	0.23926	-0.000153	0.010529	0.023193	0.27374	0.003662	0.058899	0.041809	0.10468	-0.003204	0.00061	0.070953	0.02121	-0.010071	-0.010834	-0.6517	-0.89233	0.014954	-0.016327	-0.16281	-0.041351	0.38666	-0.24826	0.001526	-1.2856	-0.009613	0.011902	-0.35706	0.001221	-0.022888
10.789	-0.00946	-0.36713	0.27481	0.001373	0.002594	0.011139	0.42023	-0.002441	0.070953	0.036316	0.053101	-0.002594	-0.046387	0.063629	0.032196	-0.022125	-0.002594	-0.50384	-0.83618	-0.036163	0.004883	-0.19516	-0.049896	0.25436	-0.073547	0.033722	-0.39398	0.006866	0.36743	-0.016632	-0.00412	-0.02121
10.79	-0.002747	-0.37216	0.27969	-0.00824	0.006714	0.006561	0.49179	0.01358	0.06485	0.066833	-0.019379	0.004425	-0.10712	0.079193	0.36133	-0.003204	-0.006866	-0.41657	-0.77301	-0.0177	0.074463	-0.2478	-0.041046	0.19562	-0.024109	0.042725	0.18616	-0.00061	0.69977	-0.15854	0.002441	-0.017548
10.791	-0.003204	-0.3923	0.22446	0.014954	0.010834	-0.001068	0.45792	0.015717	0.052338	0.075836	-0.1471	-0.002136	-0.079346	0.013885	0.32623	-0.00412	0.005188	-0.34119	-0.70114	-0.026855	0.040436	-0.2977	0.044708	0.074005	-0.033112	0.031281	-0.42572	-0.016327	0.80032	-0.42572	0.003815	-0.028381
10.792	-0.001221	-0.327	0.2121	0.003357	-0.001068	0.005493	0.27206	0.005951	0.044098	0.098267	-0.073395	0.001526	-0.068817	-0.027313	0.090332	-0.00351	0.006256	-0.27924	-0.55435	-0.016479	-0.12924	-0.25482	0.089264	-0.009766	-0.037994	0.041504	-0.9169	0.006866	0.47745	0.086823	0.001831	-0.032196
10.793	-0.008087	-0.21637	0.2124	-0.005798	0.022736	0.010681	0.14969	0.013123	0.057678	0.073547	-0.026245	-0.001678	0.006104	-0.036316	0.001373	-0.007172	0.063019	-0.27252	-0.33417	0.005035	-0.32196	-0.33005	0.17761	-0.16678	-0.10361	0.035248	-0.70374	0.04715	0.039063	0.92331	0.002594	-0.031586
10.794	-0.001526	-0.22034	0.23895	-0.021667	0.003052	0.022736	0.09201	0.018005	0.063477	0.042877	-0.17105	0.003815	0.077667	0.030975	-0.06073	-0.010681	0.10178	-0.32486	-0.47562	0.016785	-0.10178	-0.47058	0.18219	-0.24551	-0.10742	-0.019379	-0.50919	-0.063477	0.094757	0.90256	-0.000153	-0.031433
10.795	-0.005798	-0.19699	0.24826	-0.005951	0.003204	0.00885	-0.039215	0.011444	0.066681	0.070343	-0.10757	-0.001068	-0.001831	0.077515	0.041809	-0.022888	0.071411	-0.29984	-0.59647	0.042725	0.10452	-0.52673	0.075226	-0.12039	-0.029602	-0.061493	-0.3598	-0.33569	-0.14923	0.50293	-0.00824	-0.027008
10.796	-0.003662	-0.15549	0.23407	-0.00824	0.016174	0.009918	0.007019	0.011902	0.076294	0.1033	-0.053253	0.007782	-0.081329	0.032196	0.15961	-0.027008	0.028534	-0.22308	-0.11948	0.013123	0.058136	-0.17136	-0.018311	-0.001373	-0.026855	-0.09903	-0.13336	-0.24445	-0.36072	0.14587	-0.001526	-0.025024
